<svg width="114" height="100" viewBox="0 0 114 100" fill="none" xmlns="http://www.w3.org/2000/svg">
<rect x="36.7173" y="-14" width="85" height="85" rx="42.5" transform="rotate(25.5925 36.7173 -14)" fill="#F5A649"/>
<path d="M61.0356 27.1321L63.814 21.3312L69.0955 23.8608L66.3171 29.6617L61.0356 27.1321ZM52.3006 58.9262L49.6259 64.5107L44.3444 61.9811L47.0191 56.3966L52.3006 58.9262ZM49.4915 59.1242C45.451 57.189 42.6471 54.7462 41.0799 51.7957C39.5265 48.8163 39.3356 45.5849 40.5074 42.1013L46.9144 45.17C46.3147 46.9406 46.4869 48.6552 47.4311 50.3138C48.3891 51.9435 49.9648 53.2837 52.1582 54.3342C53.9476 55.1912 55.4705 55.5304 56.727 55.3516C58.0124 55.1866 58.9108 54.5703 59.4222 53.5024C59.906 52.4923 60.0045 51.546 59.7175 50.6634C59.4444 49.7521 58.6906 48.7701 57.4562 47.7176L52.4224 43.3374C49.8506 41.0767 48.2177 38.8931 47.5235 36.7866C46.8721 34.665 47.0716 32.5075 48.1221 30.3141C49.0206 28.4382 50.2709 27.0501 51.873 26.1498C53.5177 25.2345 55.3931 24.8377 57.4992 24.9594C59.6191 25.0522 61.8623 25.6653 64.2289 26.7988C67.8653 28.5405 70.3511 30.7955 71.6862 33.5639C73.0352 36.3034 73.1767 39.1564 72.1106 42.123L65.7036 39.0543C66.1476 37.3864 65.9796 35.9222 65.1997 34.6616C64.4485 33.4148 63.2072 32.3767 61.4755 31.5474C59.9748 30.8286 58.6388 30.5435 57.4677 30.6922C56.2966 30.8409 55.476 31.4059 55.006 32.3871C54.6466 33.1375 54.5602 33.9477 54.7467 34.8176C54.9471 35.6586 55.7228 36.6688 57.0739 37.8482L62.1077 42.2284C64.7661 44.5305 66.4065 46.7355 67.0291 48.8432C67.6944 50.9359 67.4949 53.0934 66.4305 55.3157C64.9377 58.4326 62.7081 60.3097 59.7418 60.9469C56.7756 61.584 53.3588 60.9765 49.4915 59.1242Z" fill="white"/>
</svg>
