<svg width="368" height="273" viewBox="0 0 368 273" fill="none" xmlns="http://www.w3.org/2000/svg">
<path fill-rule="evenodd" clip-rule="evenodd" d="M128.155 10.1923L118.836 7.18353C99.9146 1.07428 80.9727 -1.13382 65.9068 1.01212C54.6769 2.61195 48.6387 5.29511 47.0684 9.38718C46.4853 10.9086 50.3554 15.7939 58.8208 24.2207C65.7617 31.1321 71.0378 37.5217 74.0288 41.591L76.6158 46.3949C81.3975 50.5304 57.7182 58.6702 45.8786 91.9691C22.1993 120.828 0.385169 119.14 0 121.79L2.70979 177.127C4.75212 181.413 7.34947 182.787 26.0931 189.495C75.3436 207.118 101.015 232.667 106.722 252.208C109.971 260.593 113.382 266.948 115.314 268.212C123.9 273.831 152.338 273.901 157.334 271.505C162.567 268.995 164.967 263.757 164.993 254.79L165.015 247.342L178.704 248.562C195.04 250.017 223.346 248.774 239.753 245.881C246.264 244.732 252.425 243.781 253.442 243.764C254.746 243.745 255.292 246.757 255.292 253.976C255.292 266.468 255.974 268.409 261.338 271.182C264.854 273.001 268.372 273.111 282.748 271.85C292.21 271.021 301.083 269.736 302.469 268.995C305.338 267.459 306.602 265.142 313.022 249.658C319.535 233.946 329.552 216.004 342.347 197.119C363.061 166.549 368.661 149.992 367.455 122.87C366.516 115.763 363.84 99.4384 360.653 90.9948C308.57 -16.8075 204.269 -5.97396 128.155 10.1923ZM264.172 32.8444C264.172 27.6469 259.486 25.2404 244.192 22.5869C218.256 18.0849 159.68 20.5357 156.048 26.2749C154.001 29.5101 154.389 33.1064 157.076 35.7955C159.101 37.8186 161.106 38.0184 169.286 37.0105C187.102 34.8158 237.163 35.6874 247.892 38.3795C256.367 40.5062 257.909 40.5358 260.842 38.634C262.804 37.3628 264.172 34.9845 264.172 32.8444ZM76.9576 118.179C82.6791 118.179 87.3173 113.541 87.3173 107.82C87.3173 102.098 82.6791 97.4599 76.9576 97.4599C71.2361 97.4599 66.5979 102.098 66.5979 107.82C66.5979 113.541 71.2361 118.179 76.9576 118.179Z" fill="#DA1333"/>
</svg>
